<?xml version="1.0" standalone="no"?>
<!DOCTYPE svg PUBLIC "-//W3C//DTD SVG 20010904//EN"
 "http://www.w3.org/TR/2001/REC-SVG-20010904/DTD/svg10.dtd">
<svg version="1.0" xmlns="http://www.w3.org/2000/svg"
 width="260.000000pt" height="260.000000pt" viewBox="0 0 260.000000 260.000000"
 preserveAspectRatio="xMidYMid meet">
<metadata>
Created by potrace 1.14, written by Peter Selinger 2001-2017
</metadata>
<g transform="translate(0.000000,260.000000) scale(0.100000,-0.100000)"
fill="#000000" stroke="none">
<path d="M1241 2560 c-24 -22 -71 -53 -105 -70 -106 -51 -166 -63 -334 -64
l-153 -2 -23 -55 c-33 -83 -63 -126 -135 -203 -74 -77 -142 -126 -247 -179
l-72 -36 5 -123 c8 -192 -18 -288 -118 -438 -32 -48 -59 -91 -59 -96 0 -4 21
-29 46 -56 90 -96 137 -262 130 -455 -2 -59 -5 -114 -7 -122 -3 -9 18 -21 63
-36 79 -28 145 -71 212 -140 53 -54 137 -177 180 -263 20 -39 31 -52 44 -48
117 33 255 22 383 -30 62 -25 104 -49 196 -111 l52 -35 43 35 c59 48 168 102
257 126 60 17 100 20 213 19 l139 -2 33 80 c61 152 151 244 334 337 l103 53 3
150 c2 130 6 159 30 231 27 85 74 176 122 238 l27 36 -21 27 c-48 60 -114 173
-133 227 -32 91 -42 199 -30 305 12 96 10 110 -17 110 -9 0 -59 21 -111 46
-146 71 -242 178 -316 353 -22 53 -25 56 -57 53 -18 -1 -85 -3 -148 -5 -153
-2 -219 18 -362 113 -59 38 -111 70 -115 70 -4 -1 -28 -19 -52 -40z m189 -77
c118 -78 262 -112 403 -96 43 5 76 7 75 3 -2 -3 -27 -47 -57 -98 l-53 -93
-105 2 c-147 2 -240 30 -338 100 l-45 32 0 115 0 114 28 -18 c15 -9 56 -37 92
-61z m-150 -42 l0 -109 -32 -28 c-84 -70 -225 -108 -380 -102 l-82 3 -52 90
c-29 50 -53 93 -54 96 0 3 57 6 128 6 185 0 328 41 422 122 19 17 38 30 43 31
4 0 7 -49 7 -109z m693 -133 c83 -164 192 -270 342 -333 l65 -28 -68 -39 c-37
-22 -81 -48 -98 -59 l-32 -19 -80 40 c-102 51 -175 128 -232 244 l-42 83 52
92 c29 50 53 91 54 91 2 0 19 -33 39 -72z m-1259 -33 c25 -44 46 -88 46 -98 0
-34 -53 -127 -101 -177 -49 -51 -137 -113 -214 -150 l-44 -21 -96 57 -95 57
50 23 c146 68 304 213 361 332 19 38 37 67 40 63 4 -3 27 -42 53 -86z m791
-77 c52 -17 97 -22 172 -23 57 0 103 -2 103 -4 0 -3 -18 -35 -40 -73 -46 -77
-66 -86 -172 -74 -79 9 -140 30 -205 69 l-53 31 0 88 0 88 62 -41 c34 -22 94
-49 133 -61z m-226 10 c0 -80 -1 -84 -31 -107 -71 -56 -220 -92 -320 -77 -41
7 -45 10 -83 79 l-41 72 111 0 c129 1 217 23 305 79 30 20 56 36 58 36 1 0 2
-37 1 -82z m667 -257 c36 -39 79 -72 130 -98 l76 -40 -76 -43 -77 -42 -44 17
c-55 21 -148 118 -192 202 -18 33 -33 65 -33 71 0 5 18 41 41 80 l41 71 40
-80 c22 -44 64 -106 94 -138z m-1122 135 c20 -35 36 -72 36 -81 0 -36 -53
-125 -103 -173 -50 -46 -141 -102 -168 -102 -6 0 -45 18 -85 41 l-74 40 46 25
c133 71 244 174 286 265 13 27 24 49 25 49 1 0 17 -29 37 -64z m435 -142 c-36
-39 -119 -64 -208 -64 l-78 0 -29 52 c-16 29 -30 55 -32 58 -1 3 23 3 53 2 77
-5 190 22 255 61 l55 33 3 -59 c3 -50 0 -63 -19 -83z m264 60 c40 -9 91 -14
115 -11 23 2 42 3 42 0 0 -2 -16 -28 -35 -58 -34 -54 -36 -55 -82 -55 -68 0
-154 23 -207 54 l-46 27 0 64 0 64 70 -35 c39 -19 103 -42 143 -50z m229 -91
c50 -86 128 -166 185 -189 l36 -16 -52 -28 c-50 -28 -53 -28 -93 -14 -67 23
-103 58 -144 137 l-38 74 30 57 c16 31 30 56 30 56 1 0 22 -35 46 -77z m-832
8 c31 -54 31 -55 16 -96 -21 -53 -83 -116 -152 -152 l-54 -28 -55 29 c-30 16
-55 31 -55 35 1 3 24 17 53 30 70 33 168 132 192 194 10 26 19 46 20 45 2 -2
17 -27 35 -57z m583 -61 c42 -6 82 -8 87 -5 16 10 12 -3 -15 -45 -24 -38 -28
-40 -74 -40 -62 0 -137 23 -167 51 -18 17 -24 33 -24 64 l0 42 58 -29 c34 -17
88 -32 135 -38z m-223 11 l0 -50 -52 -25 c-30 -14 -81 -28 -118 -31 l-65 -6
-27 46 c-16 25 -28 47 -28 48 0 1 18 1 41 -1 58 -6 157 16 204 44 22 13 41 24
43 24 1 0 2 -22 2 -49z m1115 39 c-11 -18 -8 -225 5 -285 15 -73 65 -183 114
-250 l36 -50 -107 -3 c-104 -3 -107 -2 -135 25 -40 38 -84 135 -98 213 -6 36
-10 108 -8 160 l3 94 90 53 c89 52 112 62 100 43z m-2073 -70 c83 -47 88 -54
88 -140 0 -108 -35 -209 -116 -335 l-35 -55 -110 0 -110 0 41 60 c99 145 135
270 128 436 -5 104 -5 104 16 91 12 -7 56 -33 98 -57z m1334 -45 c31 -62 99
-131 145 -147 16 -5 29 -13 29 -17 0 -4 -19 -16 -43 -28 l-44 -21 -49 26 c-42
23 -54 37 -81 93 l-33 66 23 42 c12 22 23 41 23 41 1 0 14 -25 30 -55z m-659
-6 c22 -41 22 -41 3 -78 -22 -44 -83 -101 -126 -120 -28 -11 -37 -10 -73 8
-23 12 -41 23 -41 25 0 2 27 20 59 40 64 39 128 106 137 143 8 32 16 29 41
-18z m468 -44 l64 -7 -15 -30 c-15 -29 -18 -30 -68 -26 -29 2 -70 13 -92 25
-33 17 -39 25 -42 56 l-3 37 45 -24 c27 -14 73 -27 111 -31z m-189 -21 c-7
-19 -58 -40 -118 -49 -43 -7 -49 -5 -72 20 -30 32 -33 44 -10 41 32 -5 126 15
163 33 l36 19 3 -25 c2 -13 1 -31 -2 -39z m894 -23 c0 -148 32 -262 98 -348
l24 -33 -85 0 c-83 0 -86 1 -107 30 -60 85 -92 217 -76 321 6 41 11 46 69 81
34 20 65 37 70 37 4 1 7 -39 7 -88z m-1588 -50 c13 -76 -16 -174 -85 -288
l-31 -53 -88 0 -88 0 47 72 c69 107 93 183 93 300 l0 97 72 -43 c68 -40 73
-45 80 -85z m1054 -33 c16 -15 41 -33 56 -41 l28 -14 -34 -18 c-33 -18 -35
-18 -67 1 -21 12 -45 41 -63 73 -28 52 -28 53 -10 86 l18 33 22 -46 c12 -26
34 -59 50 -74z m-584 5 c-22 -43 -43 -63 -87 -86 -27 -14 -33 -14 -57 1 -16 9
-28 19 -27 22 0 3 21 19 47 35 26 17 61 51 77 76 l30 46 18 -28 c18 -27 17
-29 -1 -66z m383 33 c25 0 45 -2 45 -3 0 -1 -5 -14 -12 -28 -14 -31 -54 -33
-115 -5 -37 16 -43 23 -43 49 l0 31 41 -21 c22 -12 60 -22 84 -23z m-155 4 c0
-36 -19 -47 -92 -56 -51 -6 -54 -5 -66 20 l-12 26 48 0 c27 0 62 8 82 19 19
10 36 19 38 20 1 0 2 -12 2 -29z m716 -63 c1 -99 21 -170 69 -241 l24 -36 -64
0 c-64 0 -65 0 -94 40 -37 51 -53 117 -49 200 l3 65 50 32 c27 18 52 33 55 33
3 0 5 -42 6 -93z m-1326 44 c44 -27 45 -28 48 -85 4 -68 -16 -135 -59 -200
l-31 -46 -64 0 c-35 0 -64 2 -64 5 0 2 15 28 34 57 27 43 75 153 76 173 0 3 0
32 0 65 0 33 3 60 8 59 4 0 27 -13 52 -28z m850 -16 c0 -8 23 -38 50 -67 36
-37 46 -54 38 -60 -19 -11 -27 -10 -58 9 -38 22 -65 73 -56 106 7 29 26 37 26
12z m-410 -38 c0 -20 -24 -50 -62 -77 -33 -24 -44 -28 -60 -19 -19 10 -17 14
30 55 28 25 54 54 58 66 6 21 7 21 20 3 8 -10 14 -23 14 -28z m294 -7 c27 0
34 -3 30 -15 -13 -33 -124 -11 -124 25 0 19 1 20 30 5 16 -8 45 -15 64 -15z
m451 -8 c-10 -59 11 -160 43 -212 l28 -45 -50 1 -51 1 -27 53 c-23 43 -28 67
-28 122 0 67 0 68 38 92 50 33 55 32 47 -12z m-575 9 c0 -38 -102 -55 -120
-21 -10 19 -8 20 32 21 24 0 52 4 63 9 11 5 21 9 23 9 1 1 2 -8 2 -18z m-446
-57 c9 -35 -9 -120 -37 -168 -21 -37 -24 -39 -75 -40 -28 0 -51 1 -50 4 2 3
18 35 37 72 24 48 35 86 38 132 l6 65 37 -19 c24 -12 40 -29 44 -46z m697 -33
c31 -19 31 -19 9 -31 -18 -10 -25 -8 -42 7 -25 22 -48 72 -41 91 4 9 12 3 24
-18 10 -16 33 -39 50 -49z m-391 38 c0 -22 -54 -79 -74 -79 -28 0 -24 15 17
55 49 49 57 52 57 24z m260 -21 c0 -12 -48 -10 -71 2 -34 19 -20 27 26 16 25
-6 45 -14 45 -18z m340 -20 c0 -33 10 -76 25 -113 14 -33 25 -60 25 -60 0 0
-15 0 -32 1 -44 1 -69 44 -75 128 -5 58 -4 64 18 80 35 24 39 21 39 -36z
m-812 -25 c5 -34 -15 -101 -37 -128 -10 -13 -28 -20 -48 -20 -18 0 -33 1 -33
3 0 1 8 19 19 40 23 46 45 148 35 164 -4 7 8 3 27 -9 23 -15 35 -31 37 -50z
m350 55 c-5 -15 -54 -29 -74 -21 -26 10 -15 22 24 26 20 2 41 4 45 5 5 1 7 -3
5 -10z m195 -65 c14 -16 16 -23 7 -23 -23 0 -50 32 -50 59 1 24 1 25 12 6 6
-11 20 -30 31 -42z m-325 -10 c-15 -14 -31 -21 -40 -18 -13 5 -9 13 20 40 29
26 38 30 40 18 2 -9 -7 -26 -20 -40z m223 33 c15 9 10 -9 -10 -35 -24 -32 -51
-22 -51 18 0 29 2 30 26 21 14 -6 30 -8 35 -4z m307 -133 c16 -29 16 -29 -15
-27 -34 1 -52 38 -53 106 0 35 5 50 17 57 16 8 19 2 28 -52 6 -34 16 -72 23
-84z m-398 117 c0 -10 -9 -24 -20 -30 -15 -8 -21 -6 -30 9 -16 30 -17 29 43
40 4 0 7 -8 7 -19z m-296 -3 c15 -11 17 -21 12 -53 -11 -58 -30 -87 -59 -88
l-25 -2 19 36 c11 19 19 54 19 77 0 46 6 51 34 30z m439 -65 c-22 -12 -28 -12
-40 1 -13 13 -13 18 2 40 l17 26 23 -27 23 -27 -25 -13z m-213 17 c0 -22 -29
-33 -47 -18 -11 10 -10 16 9 36 23 24 38 17 38 -18z m385 -70 c10 -27 -12 -32
-29 -7 -19 27 -21 105 -3 111 8 2 14 -12 18 -42 4 -25 10 -53 14 -62z m-545
52 c0 -35 -21 -74 -42 -77 -15 -2 -15 1 -2 32 8 18 14 48 14 65 0 27 2 30 15
19 8 -7 15 -24 15 -39z m485 -66 c8 -20 8 -20 -13 -1 -14 12 -22 31 -22 51 0
47 14 53 21 8 3 -21 10 -47 14 -58z m-255 58 c-1 -24 -2 -26 -11 -10 -5 9 -7
22 -4 27 10 17 15 11 15 -17z m-180 -18 c0 -21 -27 -61 -35 -53 -2 2 2 22 8
45 11 44 27 49 27 8z m229 28 c0 -5 -4 -17 -9 -28 -8 -18 -9 -17 -9 8 -1 15 4
27 9 27 6 0 10 -3 9 -7z m161 -78 c0 0 -14 0 -32 1 -44 1 -55 33 -20 56 26 17
26 17 39 -20 7 -20 13 -37 13 -37z m-322 25 c-2 -8 -14 -17 -27 -18 -19 -3
-22 0 -17 13 3 9 6 23 6 31 0 12 3 12 20 2 11 -7 19 -20 18 -28z m80 20 c14
-23 10 -25 -19 -9 -11 5 -17 14 -14 20 9 14 19 11 33 -11z m117 11 c3 -6 -4
-15 -15 -21 -19 -10 -20 -10 -8 9 15 24 15 24 23 12z m-145 -45 c9 -12 8 -15
-9 -13 -21 1 -26 8 -14 20 9 9 9 9 23 -7z m170 5 c0 -5 -9 -11 -20 -14 -22 -6
-28 8 -7 16 19 8 27 8 27 -2z m-1097 -79 c67 -64 106 -199 107 -369 l0 -82
-94 -56 c-52 -30 -96 -55 -98 -55 -3 0 -5 57 -5 128 0 191 -41 328 -128 430
l-32 37 111 -3 c104 -3 113 -5 139 -30z m234 -55 c37 -75 53 -146 53 -230 l0
-63 -72 -41 -73 -42 -2 62 c-7 167 -38 283 -98 361 l-27 35 79 3 c52 2 83 -1
94 -10 9 -7 30 -40 46 -75z m152 19 c29 -57 35 -81 39 -149 l4 -82 -54 -30
c-29 -16 -55 -31 -58 -32 -3 -2 -6 34 -7 80 -2 90 -26 176 -68 239 -14 21 -25
39 -25 40 0 2 30 3 67 2 l68 -1 34 -67z m105 51 c23 -35 44 -99 50 -158 l7
-54 -44 -26 -45 -27 -4 73 c-4 53 -13 90 -36 140 -18 37 -32 69 -32 71 0 2 20
4 45 4 35 0 48 -5 59 -23z m112 -14 c9 -20 18 -61 21 -91 6 -49 4 -56 -18 -73
-33 -26 -36 -24 -37 21 -2 35 -22 105 -47 163 -6 14 -2 17 29 17 33 0 39 -4
52 -37z m89 -15 c21 -72 19 -93 -9 -106 -23 -10 -24 -9 -30 40 -4 28 -13 66
-21 85 -14 33 -14 33 15 33 27 0 31 -5 45 -52z m63 4 c15 -46 11 -72 -11 -72
-9 0 -16 15 -20 43 -2 23 -8 50 -12 61 -6 14 -4 17 10 15 11 -3 24 -21 33 -47z
m42 22 c6 -14 10 -34 10 -45 0 -35 -15 -20 -26 26 -11 48 0 62 16 19z m78 14
c17 -17 15 -24 -12 -41 -22 -15 -23 -15 -34 19 -9 32 -9 34 12 34 12 0 27 -5
34 -12z m62 2 c-19 -13 -30 -13 -30 0 0 6 10 10 23 10 18 0 19 -2 7 -10z m160
-5 c0 -19 -11 -19 -36 0 -18 14 -18 14 9 15 17 0 27 -5 27 -15z m90 -4 c-5
-11 -10 -29 -10 -41 0 -18 -3 -19 -22 -9 -30 16 -37 27 -31 50 4 14 14 19 40
19 30 0 33 -2 23 -19z m49 -3 c-7 -13 -16 -36 -20 -53 l-7 -30 -1 33 c-1 36
14 72 30 72 6 0 5 -9 -2 -22z m72 -4 c-11 -14 -23 -46 -27 -71 -6 -42 -8 -45
-20 -28 -31 42 -3 125 42 125 l25 0 -20 -26z m74 -16 c-17 -29 -25 -59 -25
-90 0 -51 -4 -55 -34 -33 -42 32 6 165 59 165 l24 0 -24 -42z m112 10 c-32
-44 -47 -91 -47 -149 0 -27 -4 -49 -9 -49 -4 0 -21 10 -36 22 -25 20 -27 25
-22 71 4 27 18 69 32 93 24 40 29 44 66 44 l40 0 -24 -32z m123 -10 c-38 -52
-60 -125 -60 -200 l0 -58 -27 17 c-45 27 -53 43 -53 104 0 67 10 97 46 145 24
31 31 34 75 34 l49 0 -30 -42z m184 30 c-4 -7 -21 -32 -37 -56 -49 -73 -69
-146 -65 -234 2 -43 2 -78 1 -78 -1 0 -19 10 -40 22 -71 40 -73 44 -73 125 0
82 14 125 63 190 32 42 33 42 95 43 48 0 61 -3 56 -12z m206 6 c0 -3 -13 -24
-28 -47 -74 -108 -105 -208 -106 -334 l-1 -92 -55 31 c-81 46 -83 48 -88 137
-6 98 11 155 71 247 l42 64 83 0 c45 0 82 -3 82 -6z m221 -51 c-88 -131 -122
-241 -129 -419 l-5 -132 -91 53 c-100 58 -103 63 -105 160 -1 110 52 265 126
363 l24 32 110 0 109 0 -39 -57z m-1271 12 c-7 -8 -17 -12 -22 -9 -5 3 -1 12
9 19 22 17 30 11 13 -10z m105 5 c3 -5 2 -10 -4 -10 -5 0 -13 5 -16 10 -3 6
-2 10 4 10 5 0 13 -4 16 -10z m-78 -32 c-3 -8 -6 -5 -6 6 -1 11 2 17 5 13 3
-3 4 -12 1 -19z m-63 -3 c3 -8 0 -26 -6 -40 l-11 -24 -27 22 -28 22 22 17 c26
22 42 23 50 3z m209 -6 c12 -7 23 -13 25 -14 2 -2 -8 -14 -22 -28 l-25 -25
-21 34 c-11 20 -20 37 -20 40 0 8 42 4 63 -7z m-143 -55 c0 -32 -2 -34 -27
-28 -37 9 -37 8 -19 43 21 40 46 32 46 -15z m81 7 l17 -28 -34 -11 -34 -10 0
37 c0 59 22 64 51 12z m-217 -2 c14 -11 26 -30 26 -41 0 -18 -4 -17 -38 13
-35 31 -44 49 -23 49 5 0 20 -9 35 -21z m320 -24 c-42 -40 -46 -42 -37 -17 10
28 35 52 55 52 16 0 12 -7 -18 -35z m-350 -24 c30 -31 36 -43 29 -56 -9 -15
-13 -14 -32 14 -12 17 -35 38 -51 48 -21 12 -26 19 -17 25 21 14 32 9 71 -31z
m418 -1 c-17 -11 -39 -31 -48 -45 -23 -35 -42 -18 -25 22 16 39 59 65 84 51
18 -9 17 -11 -11 -28z m-492 -12 c18 -13 43 -37 56 -54 21 -26 22 -33 10 -49
-12 -17 -15 -16 -51 24 -21 23 -50 49 -66 58 -25 15 -26 18 -11 29 23 18 24
17 62 -8z m209 1 c46 -16 38 -27 -13 -15 -25 6 -42 14 -40 18 7 11 15 10 53
-3z m362 0 c18 -9 16 -13 -27 -42 -26 -18 -55 -47 -65 -65 l-17 -33 -10 30
c-9 25 -7 34 10 57 17 22 74 64 86 64 2 0 12 -5 23 -11z m-211 -9 c0 -5 -12
-10 -26 -10 -14 0 -34 -5 -45 -10 -24 -14 -26 5 -1 19 22 13 72 14 72 1z
m-447 -21 c32 -17 117 -101 117 -117 0 -7 -7 -26 -15 -43 l-16 -30 -33 48
c-18 26 -54 64 -79 83 l-47 35 23 17 c27 21 23 21 50 7z m737 -14 c17 -9 30
-17 30 -19 0 -2 -25 -20 -55 -40 -30 -20 -68 -54 -84 -76 l-28 -39 -13 24
c-24 44 12 109 78 145 45 23 37 23 72 5z m-436 -5 c17 -6 26 -17 26 -31 0 -16
-4 -19 -17 -14 -10 4 -36 13 -58 18 -49 14 -49 13 -40 26 8 14 55 14 89 1z
m178 -14 c5 -7 -8 -13 -36 -17 -24 -4 -53 -12 -65 -18 -17 -9 -21 -9 -21 2 0
44 98 70 122 33z m-507 -58 c25 -22 57 -60 71 -84 l26 -43 -23 -41 c-12 -22
-26 -40 -29 -40 -3 0 -13 15 -22 33 -25 52 -86 116 -140 146 l-49 28 42 25
c51 30 65 27 124 -24z m869 16 l47 -26 -41 -22 c-55 -29 -134 -105 -158 -152
l-20 -38 -22 43 c-25 50 -22 76 17 122 20 23 106 89 129 98 1 1 22 -11 48 -25z
m-554 -10 c34 -14 40 -21 40 -46 0 -28 -1 -29 -22 -14 -12 9 -48 21 -80 27
-60 12 -66 17 -46 37 17 17 60 15 108 -4z m230 -13 c5 -11 10 -21 10 -23 0 -2
-23 -4 -51 -5 -29 -1 -64 -10 -85 -22 l-34 -20 0 29 c0 38 37 59 102 60 37 0
50 -4 58 -19z m-615 -88 c23 -22 54 -66 70 -95 l28 -55 -32 -57 -33 -57 -35
58 c-44 74 -124 157 -186 193 l-48 28 52 30 c52 30 52 30 97 13 25 -9 64 -35
87 -58z m1070 36 l56 -31 -62 -37 c-81 -47 -159 -124 -188 -185 l-24 -48 -28
46 c-16 25 -29 55 -29 66 0 31 34 91 72 127 34 32 126 93 140 93 5 0 33 -14
63 -31z m-689 -15 c34 -16 39 -24 42 -56 3 -41 -3 -46 -34 -24 -33 23 -130 47
-159 40 -26 -6 -27 -6 -15 17 25 47 32 51 80 47 26 -3 64 -13 86 -24z m278
-13 l15 -29 -64 -7 c-36 -3 -85 -17 -110 -29 l-45 -23 0 32 c0 18 7 38 15 45
24 20 87 39 132 40 37 0 44 -4 57 -29z m-881 -32 c23 -12 59 -35 80 -51 41
-33 119 -137 141 -189 14 -32 13 -37 -16 -89 -49 -87 -48 -86 -76 -38 -69 117
-188 237 -279 281 l-43 21 73 42 c39 24 73 43 75 44 1 0 22 -10 45 -21z m1462
-37 l70 -41 -39 -16 c-142 -59 -261 -176 -306 -300 l-11 -29 -40 72 -40 73 17
52 c13 38 33 68 78 112 59 58 170 128 191 121 6 -2 41 -22 80 -44z m-888 -7
c59 -25 73 -43 73 -92 0 -47 -5 -50 -35 -27 -31 23 -142 54 -196 54 -27 0 -49
2 -49 5 0 3 12 24 26 47 l26 41 59 -7 c32 -3 76 -13 96 -21z m370 -31 l23 -41
-83 -5 c-85 -6 -156 -29 -190 -62 -16 -17 -17 -15 -17 36 0 48 3 57 29 76 38
28 84 39 156 38 59 -1 60 -1 82 -42z m-1068 -57 c29 -17 82 -63 118 -102 63
-67 148 -196 141 -212 -1 -5 -27 -50 -57 -101 l-53 -93 -43 75 c-93 164 -202
276 -322 334 -41 19 -72 36 -71 37 2 2 41 26 88 54 98 59 113 60 199 8z m1783
-19 l90 -52 -74 -37 c-165 -83 -287 -203 -345 -337 l-26 -63 -54 91 c-59 101
-59 107 -16 194 47 94 156 189 270 235 26 11 52 20 57 20 5 1 49 -22 98 -51z
m-1078 -27 l66 -32 0 -69 0 -69 -57 34 c-74 43 -140 61 -228 64 -38 2 -71 4
-73 6 -2 1 9 26 25 55 l28 51 86 -3 c73 -3 97 -9 153 -37z m389 30 c18 -7 77
-88 77 -106 0 -1 -46 -5 -102 -8 -115 -5 -175 -23 -230 -68 l-38 -30 0 64 c0
53 4 67 23 85 54 51 208 86 270 63z m-453 -157 c25 -12 64 -33 88 -48 l42 -26
0 -89 0 -89 -59 39 c-32 21 -89 51 -127 66 -59 22 -85 27 -176 27 l-106 1 25
40 c13 22 32 55 41 74 l17 33 105 -4 c78 -3 117 -9 150 -24z m595 -59 l42 -70
-111 -1 c-136 -1 -226 -25 -309 -83 l-57 -40 0 84 0 85 48 35 c69 51 120 64
242 62 l104 -2 41 -70z m-670 -110 c54 -19 121 -54 173 -92 l32 -24 0 -114 0
-115 -48 35 c-72 51 -208 113 -287 130 -79 16 -171 19 -228 6 l-38 -9 24 41
c14 23 39 68 57 99 33 59 36 61 120 70 41 5 142 -9 195 -27z m781 -80 c29 -50
53 -92 54 -95 0 -3 -43 -4 -96 -2 -161 6 -303 -32 -435 -116 l-64 -41 -3 106
c-3 106 -2 107 25 131 91 78 192 109 355 108 l112 -1 52 -90z"/>
</g>
</svg>
